<?xml version="1.0" encoding="UTF-8"?>
<svg xmlns="http://www.w3.org/2000/svg" xmlns:xlink="http://www.w3.org/1999/xlink" viewBox="0 0 21 21" width="21px" height="21px">
<g id="surface69048529">
<path style=" stroke:none;fill-rule:nonzero;fill:rgb(80.000001%,80.000001%,80.000001%);fill-opacity:1;" d="M 8.820312 1.261719 C 4.871094 1.261719 1.679688 4.453125 1.679688 8.398438 C 1.679688 12.347656 4.871094 15.539062 8.820312 15.539062 C 10.230469 15.539062 11.539062 15.128906 12.644531 14.425781 L 17.800781 19.582031 L 19.582031 17.800781 L 14.5 12.71875 C 15.414062 11.519531 15.960938 10.027344 15.960938 8.398438 C 15.960938 4.453125 12.769531 1.261719 8.820312 1.261719 Z M 8.820312 2.941406 C 11.84375 2.941406 14.28125 5.375 14.28125 8.398438 C 14.28125 11.425781 11.84375 13.859375 8.820312 13.859375 C 5.796875 13.859375 3.359375 11.425781 3.359375 8.398438 C 3.359375 5.375 5.796875 2.941406 8.820312 2.941406 Z M 8.820312 2.941406 "/>
</g>
</svg>
